<?xml version="1.0" encoding="utf-8"?>
<!-- Generator: Adobe Illustrator 16.0.0, SVG Export Plug-In . SVG Version: 6.00 Build 0)  -->
<!DOCTYPE svg PUBLIC "-//W3C//DTD SVG 1.1//EN" "http://www.w3.org/Graphics/SVG/1.1/DTD/svg11.dtd">
<svg version="1.1" id="Layer_1" xmlns="http://www.w3.org/2000/svg" xmlns:xlink="http://www.w3.org/1999/xlink" x="0px" y="0px"
	 width="170px" height="130px" viewBox="221 331 170 130" enable-background="new 221 331 170 130" xml:space="preserve">
<g id="Layer_1_1_">
</g>
<g id="Layer_2">
	<line fill="none" stroke="#000000" x1="237.455" y1="360" x2="269.955" y2="360"/>
	<line fill="none" stroke="#000000" stroke-width="3" x1="374.455" y1="349.75" x2="374.455" y2="375.5"/>
	<line fill="none" stroke="#000000" stroke-width="3" x1="375.83" y1="375.5" x2="351.58" y2="375.5"/>
	<line fill="none" stroke="#000000" stroke-width="3" x1="352.955" y1="375.5" x2="352.955" y2="386.5"/>
	<line fill="none" stroke="#000000" stroke-width="3" x1="351.58" y1="387.25" x2="368.08" y2="387.25"/>
	<line fill="none" stroke="#000000" stroke-width="3" x1="366.705" y1="387.25" x2="366.705" y2="406.5"/>
	<line fill="none" stroke="#000000" stroke-width="3" x1="368.08" y1="405.5" x2="351.121" y2="405.5"/>
	<line fill="none" stroke="#000000" stroke-width="3" x1="352.455" y1="406.5" x2="352.455" y2="440.75"/>
	<line fill="none" stroke="#000000" stroke-width="3" x1="344.955" y1="350.25" x2="375.83" y2="350.25"/>
	<line fill="none" stroke="#000000" stroke-width="3" x1="329.455" y1="386" x2="329.455" y2="362.25"/>
	<path fill="none" stroke="#000000" stroke-width="3" d="M329.455,362.25c0-6.633,6.934-12,15.5-12"/>
	<polygon fill="#FF3000" stroke="#000000" points="346.205,440.5 317.455,440.5 307.455,419.75 298.205,440.25 277.205,440.25 
		237.455,360 269.705,360 288.455,398.25 292.455,386.25 322.705,386.25 330.705,403.75 346.205,403.75 346.205,440.25 	"/>
	<line fill="none" stroke="#000000" x1="231.205" y1="344" x2="381.455" y2="344"/>
	<polyline fill="none" stroke="#000000" points="381.705,449.5 231.205,449.5 231.205,344 	"/>
	<line fill="none" stroke="#000000" x1="381.455" y1="344" x2="381.455" y2="449.75"/>
</g>
</svg>
